<svg width="1440" height="312" viewBox="0 0 1440 312" fill="none" xmlns="http://www.w3.org/2000/svg">
<path fill-rule="evenodd" clip-rule="evenodd" d="M-4 52.2285L76.2222 37.1838C156.444 23.1421 316.889 -5.94432 477.333 1.07654C637.778 9.10037 798.222 52.2285 958.667 59.2493C1119.11 66.2702 1279.56 37.1838 1359.78 23.1421L1440 9.10037V312H1359.78C1279.56 312 1119.11 312 958.667 312C798.222 312 637.778 312 477.333 312C316.889 312 156.444 312 76.2222 312H-4V52.2285Z" fill="#D5E6E6" fill-opacity="0.6"/>
<path fill-rule="evenodd" clip-rule="evenodd" d="M-4 52.2285L76.2222 37.1838C156.444 23.1421 316.889 -5.94432 477.333 1.07654C637.778 9.10037 798.222 98.4791 958.667 105.5C1119.11 112.521 1279.56 99.5417 1359.78 85.5L1440 69.5V312H1359.78C1279.56 312 1119.11 312 958.667 312C798.222 312 637.778 312 477.333 312C316.889 312 156.444 312 76.2222 312H-4V52.2285Z" fill="#D5E6E6"/>
</svg>
