<svg width="934" height="785" viewBox="0 0 934 785" fill="none" xmlns="http://www.w3.org/2000/svg">
<g opacity="0.3">
<path fill-rule="evenodd" clip-rule="evenodd" d="M579.821 -116.686C670.691 -122.703 740.23 -40.8747 810 17.6439C874.775 71.9734 941.076 128.159 967.487 208.463C993.953 288.933 977.234 374.503 954.176 456.015C930.246 540.611 900.033 625.958 833.218 683.11C763.123 743.069 671.503 766.027 579.821 776.233C478.048 787.562 367.821 800.069 281.82 744.493C194.089 687.799 154.469 582.361 124.836 482.209C95.8814 384.351 65.7004 272.548 115.886 183.686C164.502 97.603 287.784 100.462 370.778 46.7283C446.885 -2.5465 489.349 -110.695 579.821 -116.686Z" stroke="#F5F5F7" stroke-width="3"/>
<path fill-rule="evenodd" clip-rule="evenodd" d="M571.507 -175.636C676.944 -182.619 757.631 -87.6509 838.586 -19.7356C913.746 43.318 990.675 108.525 1021.32 201.724C1052.03 295.116 1032.63 394.426 1005.88 489.027C978.109 587.207 943.053 686.259 865.527 752.589C784.194 822.175 677.886 848.819 571.507 860.664C453.418 873.813 325.52 888.329 225.731 823.828C123.936 758.03 77.9649 635.661 43.5808 519.427C9.98464 405.856 -25.0349 276.1 33.1963 172.969C89.6063 73.063 232.652 76.3816 328.951 14.0191C417.259 -43.168 466.531 -168.683 571.507 -175.636Z" stroke="#F5F5F7" stroke-width="3"/>
<path fill-rule="evenodd" clip-rule="evenodd" d="M587.293 -78.7248C666.957 -84.0024 727.92 -12.2323 789.086 39.093C845.874 86.7441 903.998 136.023 927.153 206.456C950.355 277.035 935.698 352.086 915.483 423.578C894.504 497.775 847.661 564.373 789.086 614.5C727.635 667.088 667.669 695.482 587.293 704.433C498.071 714.37 413.896 719.745 338.5 671C261.588 621.275 214.395 534.393 188.416 446.552C163.032 360.723 148.002 272.439 191.999 194.5C234.62 118.999 331.269 111.731 404.029 64.6022C470.75 21.3845 507.978 -73.4704 587.293 -78.7248Z" stroke="#F5F5F7" stroke-width="3"/>
<path fill-rule="evenodd" clip-rule="evenodd" d="M596.132 -0.999908C664.285 -5.51543 698.69 55.0848 751.018 98.9991C799.599 139.77 841.691 170.737 861.5 231C881.35 291.388 878.794 340.831 861.5 402C843.552 465.484 801.129 513.111 751.018 556C698.446 600.995 664.894 640.653 596.132 648.312C519.802 656.814 447.791 661.413 383.289 619.706C317.491 577.161 277.117 502.824 254.892 427.666C233.176 354.231 220.318 278.694 257.957 212.009C294.419 147.409 383.772 168.824 446.018 128.5C503.098 91.5223 528.278 3.49586 596.132 -0.999908Z" stroke="#F5F5F7" stroke-width="3"/>
<path fill-rule="evenodd" clip-rule="evenodd" d="M586.756 97.001C639.032 93.5346 693 121 729.5 165C766.764 196.298 789.806 231.44 805 277.701C820.225 324.059 818.265 374.542 805 421.5C791.233 470.234 743.996 508.846 705.559 541.77C665.235 576.311 639.499 606.754 586.756 612.634C528.208 619.161 472.972 622.691 423.497 590.674C373.027 558.014 342.059 500.949 325.011 443.253C308.354 386.88 298.492 328.893 327.363 277.701C355.331 228.111 408.255 227.955 456 196.999C499.783 168.613 534.709 100.452 586.756 97.001Z" stroke="#F5F5F7" stroke-width="3"/>
<path fill-rule="evenodd" clip-rule="evenodd" d="M601.793 163.268C638.831 160.816 674.491 175.37 702.929 199.22C729.331 221.362 745.656 246.225 756.421 278.954C767.209 311.75 765.82 347.466 756.421 380.688C746.667 415.166 713.2 442.483 685.966 465.776C657.396 490.213 639.162 511.751 601.793 515.911C560.311 520.528 521.176 523.026 486.123 500.375C450.364 477.269 428.423 436.896 416.344 396.078C404.543 356.195 397.555 315.17 418.01 278.954C437.826 243.869 475.323 243.759 509.151 221.859C540.172 201.776 564.918 165.71 601.793 163.268Z" stroke="#F5F5F7" stroke-width="3"/>
<path fill-rule="evenodd" clip-rule="evenodd" d="M596.176 226.173C620.111 224.589 643.156 233.992 661.533 249.4C678.595 263.706 689.146 279.769 696.102 300.914C703.074 322.103 702.176 345.178 696.102 366.641C689.799 388.916 668.171 406.565 650.572 421.614C632.108 437.402 620.325 451.317 596.176 454.004C569.368 456.987 544.078 458.601 521.425 443.967C498.316 429.039 484.137 402.955 476.331 376.584C468.704 350.817 464.189 324.312 477.408 300.914C490.213 278.247 512.639 263.549 534.5 249.4C554.547 236.426 572.345 227.751 596.176 226.173Z" stroke="#F5F5F7" stroke-width="3"/>
<path fill-rule="evenodd" clip-rule="evenodd" d="M586.329 285.09C598.812 284.264 610.831 289.17 620.416 297.209C629.315 304.673 637.372 313.053 641 324.085C644.636 335.141 644.168 350.802 641 362C637.712 373.622 629.595 390.87 620.416 398.722C610.787 406.959 598.924 408.598 586.329 410C572.347 411.556 559.157 406.357 547.342 398.722C535.29 390.933 527.895 377.324 523.824 363.566C519.846 350.122 517.491 336.293 524.385 324.085C531.064 312.259 542.76 304.591 554.162 297.209C564.617 290.439 573.9 285.913 586.329 285.09Z" stroke="#F5F5F7" stroke-width="3"/>
</g>
</svg>
