<svg width="375" height="469" viewBox="0 0 375 469" fill="none" xmlns="http://www.w3.org/2000/svg">
<g opacity="0.3" clip-path="url(#clip0)">
<path fill-rule="evenodd" clip-rule="evenodd" d="M587.559 -86.6732C655.058 -91.1428 706.712 -30.3597 758.538 13.1084C806.653 53.4649 855.902 95.1998 875.521 154.851C895.18 214.625 882.761 278.186 865.633 338.734C847.857 401.573 825.415 464.97 775.785 507.423C723.717 551.961 655.661 569.014 587.559 576.595C511.961 585.011 430.084 594.301 366.201 553.018C301.033 510.905 271.604 432.585 249.592 358.191C228.084 285.502 205.665 202.453 242.944 136.446C279.056 72.5028 370.631 74.6268 432.28 34.7126C488.813 -1.88918 520.356 -82.2231 587.559 -86.6732Z" stroke="#F5F5F7" stroke-width="2.22843"/>
<path fill-rule="evenodd" clip-rule="evenodd" d="M581.381 -130.462C659.7 -135.649 719.635 -65.1059 779.769 -14.6578C835.599 32.1789 892.743 80.6155 915.506 149.845C938.317 219.217 923.907 292.985 904.034 363.256C883.408 436.185 857.368 509.761 799.781 559.031C739.366 610.721 660.4 630.513 581.381 639.311C493.663 649.078 398.66 659.86 324.535 611.948C248.921 563.073 214.773 472.177 189.232 385.837C164.277 301.475 138.264 205.091 181.519 128.485C223.42 54.2738 329.676 56.7389 401.208 10.4155C466.804 -32.0637 503.403 -125.297 581.381 -130.462Z" stroke="#F5F5F7" stroke-width="2.22843"/>
<path fill-rule="evenodd" clip-rule="evenodd" d="M593.108 -58.4792C652.283 -62.3994 697.567 -9.08798 743.001 29.0369C785.184 64.4326 828.359 101.037 845.558 153.356C862.793 205.782 851.906 261.531 836.89 314.636C821.306 369.75 786.511 419.22 743.001 456.454C697.355 495.517 652.811 516.608 593.108 523.258C526.832 530.639 464.307 534.631 408.302 498.423C351.171 461.487 316.115 396.95 296.818 331.701C277.963 267.947 266.798 202.368 299.479 144.475C331.139 88.3916 402.931 82.9932 456.977 47.9854C506.538 15.8829 534.192 -54.5761 593.108 -58.4792Z" stroke="#F5F5F7" stroke-width="2.22843"/>
<path fill-rule="evenodd" clip-rule="evenodd" d="M599.672 -0.742853C650.296 -4.09702 675.852 40.9173 714.722 73.5373C750.809 103.822 782.075 126.825 796.789 171.589C811.533 216.445 809.635 253.172 796.789 298.609C783.457 345.765 751.945 381.143 714.722 413.002C675.671 446.424 650.748 475.883 599.672 481.572C542.973 487.887 489.482 491.303 441.57 460.323C392.694 428.72 362.704 373.502 346.195 317.674C330.064 263.126 320.513 207.016 348.472 157.482C375.556 109.497 441.928 125.404 488.165 95.4506C530.565 67.9834 549.269 2.59664 599.672 -0.742853Z" stroke="#F5F5F7" stroke-width="2.22843"/>
</g>
<defs>
<clipPath id="clip0">
<rect width="738" height="469" fill="white" transform="translate(-219)"/>
</clipPath>
</defs>
</svg>
